<?xml version="1.0" encoding="UTF-8" standalone="no"?>
<svg
   width="12"
   height="10.725"
   viewBox="0 0 12 10.725"
   fill="none"
   version="1.1"
   id="svg4"
   xmlns="http://www.w3.org/2000/svg"
   xmlns:svg="http://www.w3.org/2000/svg">
  <g
     clip-path="url(#clip0_314_166)"
     id="g2"
     transform="translate(-4,-4.0752001)">
    <path
       d="m 6.175,11.5752 c -0.6,-0.45 -1.35,-0.975 -2.175,-1.575 0.975,-0.375 1.95,-0.75 2.925,-1.125 l 1.2,0.9 c -0.9,1.05 -1.5,1.425 -1.95,1.8 z m 8.025,-3.15 c -0.225,-0.6 -0.375,-1.2 -0.6,-1.8 -0.225,-0.675 -0.45,-1.275 -0.825,-1.8 -0.15,-0.225 -0.45,-0.75 -0.825,-0.75 -0.075,0 -0.15,0.075 -0.225,0.075 -0.225,0.075 -0.525,0.525 -0.6,0.825 -0.225,0.375 -0.675,0.975 -0.975,1.35 -0.075,0.15 -0.225,0.3 -0.3,0.375 -0.225,0.15 -0.45,0.375 -0.75,0.525 -0.075,0 -0.15,0.075 -0.225,0.075 -0.225,0 -0.375,0.15 -0.525,0.225 -0.225,0.225 -0.45,0.525 -0.675,0.75 0,0.075 -0.075,0.15 -0.15,0.225 l 1.125,0.825 c 0.825,-0.975 1.8,-1.95 2.475,-3.825 0,0 -0.225,2.025 -2.025,4.2 -1.125,1.275 -2.025,1.95 -2.175,2.1 0,0 0.3,-0.075 0.6,0.075 0.6,0.225 0.9,1.05 1.125,1.65 0.15,0.45 0.375,0.825 0.525,1.275 0.6,-0.15 0.975,-0.375 1.35,-0.75 0.375,-0.375 0.75,-0.825 1.125,-1.2 0.675,-0.825 1.5,-1.875 2.55,-1.35 0.15,0.075 0.375,0.225 0.45,0.3 0.225,0.15 0.375,0.3 0.6,0.525 0.375,0.3 0.525,0.525 0.825,0.675 -0.75,-1.5 -1.275,-3 -1.875,-4.575 z"
       fill="#ffffff"
       id="path2" />
  </g>
  <defs
     id="defs4">
    <clipPath
       id="clip0_314_166">
      <rect
         width="12"
         height="12"
         fill="#ffffff"
         transform="translate(4,4)"
         id="rect4"
         x="0"
         y="0" />
    </clipPath>
  </defs>
</svg>
